<svg width="100" height="100" viewBox="0 0 100 100" fill="none" xmlns="http://www.w3.org/2000/svg">
<rect width="100" height="100" fill="white"/>
<path fill-rule="evenodd" clip-rule="evenodd" d="M30.3099 47.38C30.3099 48.308 30.0346 49.2152 29.5188 49.9867C29.003 50.7582 28.27 51.3593 27.4124 51.714C26.5548 52.0686 25.6113 52.1609 24.7013 51.9792C23.7912 51.7974 22.9556 51.3497 22.3001 50.6928C21.6446 50.0359 21.1987 49.1993 21.0188 48.2888C20.839 47.3784 20.9333 46.4351 21.2898 45.5783C21.6463 44.7215 22.249 43.9897 23.0216 43.4756C23.7942 42.9614 24.7019 42.688 25.6299 42.69C26.8721 42.6927 28.0624 43.188 28.9398 44.0672C29.8172 44.9465 30.3099 46.1379 30.3099 47.38Z" fill="#83836F"/>
<path fill-rule="evenodd" clip-rule="evenodd" d="M30.3099 28.63C30.3099 29.558 30.0346 30.4652 29.5188 31.2367C29.003 32.0082 28.27 32.6093 27.4124 32.964C26.5548 33.3186 25.6113 33.4109 24.7013 33.2291C23.7912 33.0474 22.9556 32.5997 22.3001 31.9428C21.6446 31.2859 21.1987 30.4493 21.0188 29.5388C20.839 28.6284 20.9333 27.6851 21.2898 26.8283C21.6463 25.9715 22.249 25.2397 23.0216 24.7256C23.7942 24.2114 24.7019 23.938 25.6299 23.94C26.8721 23.9427 28.0624 24.438 28.9398 25.3172C29.8172 26.1965 30.3099 27.3879 30.3099 28.63Z" fill="#83836F"/>
<path fill-rule="evenodd" clip-rule="evenodd" d="M78.5001 47.38C78.5001 48.3076 78.2251 49.2144 77.7097 49.9856C77.1944 50.7569 76.4619 51.358 75.6049 51.713C74.7479 52.068 73.8049 52.1608 72.8951 51.9799C71.9854 51.7989 71.1497 51.3522 70.4938 50.6963C69.8379 50.0404 69.3912 49.2048 69.2102 48.295C69.0293 47.3852 69.1222 46.4422 69.4771 45.5852C69.8321 44.7282 70.4332 43.9958 71.2045 43.4804C71.9758 42.9651 72.8825 42.69 73.8101 42.69C75.054 42.69 76.2469 43.1841 77.1264 44.0637C78.006 44.9432 78.5001 46.1361 78.5001 47.38Z" fill="#83836F"/>
<path fill-rule="evenodd" clip-rule="evenodd" d="M78.5001 28.63C78.5001 29.5576 78.2251 30.4644 77.7097 31.2356C77.1944 32.0069 76.4619 32.608 75.6049 32.963C74.7479 33.318 73.8049 33.4108 72.8951 33.2299C71.9854 33.0489 71.1497 32.6022 70.4938 31.9463C69.8379 31.2904 69.3912 30.4547 69.2102 29.545C69.0293 28.6352 69.1222 27.6922 69.4771 26.8352C69.8321 25.9782 70.4332 25.2458 71.2045 24.7304C71.9758 24.2151 72.8825 23.94 73.8101 23.94C75.054 23.94 76.2469 24.4341 77.1264 25.3137C78.006 26.1932 78.5001 27.3861 78.5001 28.63Z" fill="#83836F"/>
<path fill-rule="evenodd" clip-rule="evenodd" d="M54.6901 56.75C54.6901 57.6776 54.415 58.5844 53.8997 59.3556C53.3843 60.1269 52.6518 60.728 51.7948 61.083C50.9379 61.438 49.9949 61.5308 49.0851 61.3499C48.1753 61.1689 47.3396 60.7222 46.6837 60.0663C46.0278 59.4104 45.5811 58.5747 45.4002 57.665C45.2192 56.7552 45.3121 55.8122 45.6671 54.9552C46.022 54.0982 46.6232 53.3657 47.3944 52.8504C48.1657 52.3351 49.0725 52.06 50.0001 52.06C51.2439 52.06 52.4368 52.5541 53.3164 53.4337C54.1959 54.3132 54.6901 55.5061 54.6901 56.75Z" fill="#83836F"/>
<path fill-rule="evenodd" clip-rule="evenodd" d="M54.6901 38C54.6901 38.9276 54.415 39.8344 53.8997 40.6056C53.3843 41.3769 52.6518 41.978 51.7948 42.333C50.9379 42.688 49.9949 42.7808 49.0851 42.5999C48.1753 42.4189 47.3396 41.9722 46.6837 41.3163C46.0278 40.6604 45.5811 39.8247 45.4002 38.915C45.2192 38.0052 45.3121 37.0622 45.6671 36.2052C46.022 35.3482 46.6232 34.6157 47.3944 34.1004C48.1657 33.5851 49.0725 33.31 50.0001 33.31C51.2439 33.31 52.4368 33.8041 53.3164 34.6837C54.1959 35.5632 54.6901 36.7561 54.6901 38Z" fill="#83836F"/>
<path fill-rule="evenodd" clip-rule="evenodd" d="M87.5 73.25C87.5 73.619 87.4273 73.9844 87.2861 74.3253C87.1449 74.6663 86.9379 74.976 86.677 75.237C86.416 75.4979 86.1063 75.7049 85.7653 75.8461C85.4244 75.9873 85.059 76.06 84.69 76.06H15.31C14.5647 76.06 13.85 75.7639 13.323 75.237C12.7961 74.71 12.5 73.9953 12.5 73.25C12.5 72.881 12.5727 72.5156 12.7139 72.1747C12.8551 71.8337 13.0621 71.524 13.323 71.263C13.584 71.0021 13.8937 70.7951 14.2347 70.6539C14.5756 70.5127 14.941 70.44 15.31 70.44H84.69C85.059 70.44 85.4244 70.5127 85.7653 70.6539C86.1063 70.7951 86.416 71.0021 86.677 71.263C86.9379 71.524 87.1449 71.8337 87.2861 72.1747C87.4273 72.5156 87.5 72.881 87.5 73.25Z" fill="#83836F"/>
</svg>
