<svg width="36" height="38" viewBox="0 0 36 38" fill="none" xmlns="http://www.w3.org/2000/svg">
<g filter="url(#filter0_d_9_803)">
<path fill-rule="evenodd" clip-rule="evenodd" d="M17 5V2H19V5H17ZM22.634 5.97381L24.134 3.37573L25.8661 4.37573L24.3661 6.97381L22.634 5.97381ZM18 23C21.866 23 25 19.866 25 16C25 12.134 21.866 9 18 9C14.134 9 11 12.134 11 16C11 19.866 14.134 23 18 23ZM18 25C22.9706 25 27 20.9706 27 16C27 11.0294 22.9706 7 18 7C13.0294 7 9 11.0294 9 16C9 20.9706 13.0294 25 18 25ZM29 15H32V17H29V15ZM29.6243 8.13397L27.0263 9.63397L28.0263 11.366L30.6243 9.86603L29.6243 8.13397ZM10.134 4.37573L11.634 6.97381L13.366 5.97381L11.866 3.37573L10.134 4.37573ZM7.97375 11.366L5.37567 9.86603L6.37567 8.13397L8.97375 9.63397L7.97375 11.366ZM17 27V30H19V27H17ZM7 15H4V17H7V15ZM5.37562 22.134L7.97369 20.634L8.97369 22.366L6.37562 23.866L5.37562 22.134ZM11.634 25.0264L10.134 27.6244L11.8661 28.6244L13.3661 26.0264L11.634 25.0264ZM24.134 28.6244L22.634 26.0264L24.366 25.0264L25.866 27.6244L24.134 28.6244ZM27.0263 22.366L29.6244 23.866L30.6244 22.134L28.0263 20.634L27.0263 22.366Z" fill="url(#paint0_linear_9_803)"/>
</g>
<defs>
<filter id="filter0_d_9_803" x="-2" y="0" width="40" height="40" filterUnits="userSpaceOnUse" color-interpolation-filters="sRGB">
<feFlood flood-opacity="0" result="BackgroundImageFix"/>
<feColorMatrix in="SourceAlpha" type="matrix" values="0 0 0 0 0 0 0 0 0 0 0 0 0 0 0 0 0 0 127 0" result="hardAlpha"/>
<feOffset dy="4"/>
<feGaussianBlur stdDeviation="2"/>
<feComposite in2="hardAlpha" operator="out"/>
<feColorMatrix type="matrix" values="0 0 0 0 0 0 0 0 0 0 0 0 0 0 0 0 0 0 0.25 0"/>
<feBlend mode="normal" in2="BackgroundImageFix" result="effect1_dropShadow_9_803"/>
<feBlend mode="normal" in="SourceGraphic" in2="effect1_dropShadow_9_803" result="shape"/>
</filter>
<linearGradient id="paint0_linear_9_803" x1="18" y1="2" x2="18" y2="30" gradientUnits="userSpaceOnUse">
<stop stop-color="#EFC977"/>
<stop offset="1" stop-color="#E07256"/>
</linearGradient>
</defs>
</svg>
